<svg width="128" height="128" viewBox="0 0 128 128" xmlns="http://www.w3.org/2000/svg">
  <!-- Background circle -->
  <circle cx="64" cy="64" r="60" fill="#6A4C93" stroke="#4A3269" stroke-width="4"/>
  
  <!-- Book/Diary shape -->
  <rect x="32" y="28" width="64" height="72" rx="4" fill="#FFFFFF" stroke="#E0E0E0" stroke-width="2"/>
  
  <!-- Book spine -->
  <rect x="32" y="28" width="8" height="72" rx="4" fill="#9C88FF"/>
  
  <!-- Lines on the page -->
  <line x1="48" y1="45" x2="88" y2="45" stroke="#CCCCCC" stroke-width="1"/>
  <line x1="48" y1="55" x2="88" y2="55" stroke="#CCCCCC" stroke-width="1"/>
  <line x1="48" y1="65" x2="88" y2="65" stroke="#CCCCCC" stroke-width="1"/>
  <line x1="48" y1="75" x2="88" y2="75" stroke="#CCCCCC" stroke-width="1"/>
  <line x1="48" y1="85" x2="88" y2="85" stroke="#CCCCCC" stroke-width="1"/>
  
  <!-- Pen/pencil -->
  <line x1="75" y1="50" x2="85" y2="40" stroke="#FF6B6B" stroke-width="3" stroke-linecap="round"/>
  <circle cx="87" cy="38" r="2" fill="#FF6B6B"/>
  
  <!-- Heart (favorite symbol) -->
  <path d="M 55 38 C 52 35, 47 35, 47 40 C 47 35, 42 35, 39 38 C 36 41, 39 46, 47 50 C 55 46, 58 41, 55 38 Z" fill="#FF6B6B"/>
</svg>